<?xml version="1.0" encoding="UTF-8" standalone="no"?>
<!-- Created with Inkscape (http://www.inkscape.org/) -->

<svg
   width="8.6668482mm"
   height="12.666927mm"
   viewBox="0 0 8.6668482 12.666927"
   version="1.1"
   id="svg1"
   xml:space="preserve"
   xmlns="http://www.w3.org/2000/svg"
   xmlns:svg="http://www.w3.org/2000/svg"><defs
     id="defs1" /><g
     id="layer1"
     transform="matrix(0.054373,0,0,0.05561534,-1.5569871,-1.6470184)"><path
       style="display:inline;fill:#000000;fill-opacity:1"
       d="M 102.25581,257.16245 C 38.524283,252.65124 10.579664,180.683 40.895725,99.136394 65.165427,33.853781 107.53008,11.4022 142.49533,45.292647 c 35.99388,34.887457 54.80465,105.411893 40.99055,153.679863 -10.78116,37.67056 -43.18446,60.88298 -81.23007,58.18994 z"
       id="path2" /><path
       style="display:inline;fill:#12d227;fill-opacity:1;stroke-width:0.935016"
       d="M 102.59514,250.77843 C 41.95251,246.63358 15.362288,180.51005 44.209011,105.58601 67.302434,45.605138 107.61378,24.976898 140.88436,56.11503 c 34.24935,32.05417 52.14841,96.85117 39.00385,141.19919 -10.25864,34.61125 -41.09143,55.93854 -77.29307,53.46421 z"
       id="path2-2" /><path
       style="display:inline;fill:#becc88;fill-opacity:1"
       d="M 102.25581,257.16245 C 38.524283,252.65124 10.579664,180.683 40.895725,99.136394 65.165427,33.853781 107.53008,11.4022 142.49533,45.292647 c 35.99388,34.887457 54.80465,105.411893 40.99055,153.679863 -10.78116,37.67056 -43.18446,60.88298 -81.23007,58.18994 z m 17.2612,-1.2287 C 180.28476,246.81904 204.56514,178.02739 174.98214,98.788845 157.83722,52.8659 129.60749,26.56797 101.91918,30.725691 55.365696,37.716234 15.56377,135.92752 33.820245,198.75987 c 11.460291,39.44229 46.785806,63.01023 85.696765,57.17388 z m -17.66541,-2.87461 c -25.275443,-2.19486 -49.651379,-18.88668 -58.759296,-40.23638 -1.329127,-3.11559 -1.315743,-3.42679 0.109994,-2.5575 6.456893,3.93685 8.235192,-9.3908 4.283105,-32.10016 -2.578687,-14.81758 -9.132997,-23.98 -13.32361,-18.62539 l -0.869033,1.11042 -0.254372,-1.35592 c -1.458386,-7.77387 3.672295,-35.64667 9.904667,-53.80782 21.00001,-61.19408 58.021415,-87.121113 90.305765,-63.243419 34.80154,25.739421 58.66352,97.744499 48.67559,146.881779 -8.38331,41.24309 -41.04674,67.32332 -80.07281,63.93439 z m 32.22846,-6.82407 c 21.424,-5.9369 33.75417,-33.84102 14.86737,-33.64602 l -3.35138,0.0346 -2.97845,1.1121 c -5.78482,2.15998 -12.01465,7.33036 -15.69187,13.02332 -0.91051,1.40963 -2.03433,2.81119 -2.49737,3.11459 -2.19449,1.43788 -3.84201,11.41758 -2.35413,14.2599 1.45307,2.77581 6.42926,3.64684 12.00583,2.1015 z m -24.017,-14.48611 c 2.56697,-1.25193 3.60974,-2.49219 2.96429,-3.52572 -0.22881,-0.36639 -0.41603,-1.51762 -0.41603,-2.5583 0,-6.23342 -9.87445,-9.08894 -14.709626,-4.25376 -0.530712,0.53071 -1.446592,1.06274 -2.035289,1.18229 l -1.070358,0.21737 -0.105914,1.81849 c -0.378388,6.49677 8.355937,10.54188 15.372927,7.11963 z M 148.85368,82.300058 c 4.55573,-2.095815 3.48221,-11.224359 -2.18914,-18.615014 -6.54138,-8.524431 -14.97986,-8.66772 -16.45313,-0.279382 -1.838,10.465011 10.27624,22.743092 18.64227,18.894396 z M 95.363729,63.145757 C 105.22108,61.276348 111.03602,51.00232 105.21381,45.742301 99.392468,40.483071 85.725683,48.143831 85.166747,56.97945 l -0.133899,2.116667 0.825854,1.215648 c 1.799419,2.648729 5.174963,3.655171 9.505027,2.833992 z"
       id="path1" /></g></svg>
